<svg width="40" height="40" viewBox="0 0 40 40" fill="none" xmlns="http://www.w3.org/2000/svg">
<g clip-path="url(#clip0_58_44)">
<mask id="mask0_58_44" style="mask-type:luminance" maskUnits="userSpaceOnUse" x="0" y="0" width="40" height="40">
<path d="M40 0H0V40H40V0Z" fill="white"/>
</mask>
<g mask="url(#mask0_58_44)">
<path fill-rule="evenodd" clip-rule="evenodd" d="M7.85156 -0.0390625C15.9245 -0.0390625 23.9974 -0.0390625 32.0703 -0.0390625C33.6216 0.402879 34.5722 1.41851 34.9219 3.00781C34.974 14.5703 34.974 26.1328 34.9219 37.6953C34.5848 38.8527 33.8427 39.6079 32.6953 39.9609C32.2266 39.9609 31.7578 39.9609 31.2891 39.9609C30.8847 39.8109 30.4941 39.6155 30.1172 39.375C27.1224 36.3802 24.1276 33.3854 21.1328 30.3906C20.3971 29.8528 19.6419 29.8268 18.8672 30.3125C15.8463 33.3334 12.8255 36.3541 9.80469 39.375C9.42781 39.6155 9.03719 39.8109 8.63281 39.9609C8.16406 39.9609 7.69531 39.9609 7.22656 39.9609C6.07926 39.6079 5.33707 38.8527 5 37.6953C4.94792 26.1328 4.94792 14.5703 5 3.00781C5.34943 1.41954 6.29996 0.403914 7.85156 -0.0390625Z" fill="#525D4A"/>
<path opacity="0.972" fill-rule="evenodd" clip-rule="evenodd" d="M7.85156 -0.0390625C15.9245 -0.0390625 23.9974 -0.0390625 32.0703 -0.0390625C33.6216 0.402879 34.5722 1.41851 34.9219 3.00781C34.974 14.5703 34.974 26.1328 34.9219 37.6953C34.5848 38.8527 33.8427 39.6079 32.6953 39.9609C32.2266 39.9609 31.7578 39.9609 31.2891 39.9609C30.8847 39.8109 30.4941 39.6155 30.1172 39.375C27.1224 36.3802 24.1276 33.3854 21.1328 30.3906C20.3971 29.8528 19.6419 29.8268 18.8672 30.3125C15.8463 33.3334 12.8255 36.3541 9.80469 39.375C9.42781 39.6155 9.03719 39.8109 8.63281 39.9609C8.16406 39.9609 7.69531 39.9609 7.22656 39.9609C6.07926 39.6079 5.33707 38.8527 5 37.6953C4.94792 26.1328 4.94792 14.5703 5 3.00781C5.34943 1.41954 6.29996 0.403914 7.85156 -0.0390625ZM8.63281 2.30469C16.1849 2.29166 23.737 2.30469 31.2891 2.34375C31.9028 2.41077 32.3064 2.73629 32.5 3.32031C32.5521 14.6484 32.5521 25.9766 32.5 37.3047C32.2365 37.5692 31.937 37.6083 31.6016 37.4219C28.6068 34.4271 25.612 31.4323 22.6172 28.4375C20.8463 27.2396 19.0755 27.2396 17.3047 28.4375C14.3099 31.4323 11.3151 34.4271 8.32031 37.4219C7.98485 37.6083 7.6854 37.5692 7.42188 37.3047C7.36979 25.9505 7.36979 14.5963 7.42188 3.24219C7.66091 2.70225 8.06453 2.38975 8.63281 2.30469Z" fill="white"/>
</g>
</g>
<defs>
<clipPath id="clip0_58_44">
<rect width="40" height="40" fill="white"/>
</clipPath>
</defs>
</svg>
