<svg width="31" height="40" viewBox="0 0 31 40" fill="none" xmlns="http://www.w3.org/2000/svg">
<path opacity="0.972" fill-rule="evenodd" clip-rule="evenodd" d="M3.85156 -0.0390625C11.9245 -0.0390625 19.9974 -0.0390625 28.0703 -0.0390625C29.6216 0.402879 30.5722 1.41851 30.9219 3.00781C30.974 14.5703 30.974 26.1328 30.9219 37.6953C30.5848 38.8527 29.8427 39.6079 28.6953 39.9609C28.2266 39.9609 27.7578 39.9609 27.2891 39.9609C26.8847 39.8109 26.4941 39.6155 26.1172 39.375C23.1224 36.3802 20.1276 33.3854 17.1328 30.3906C16.3971 29.8528 15.6419 29.8268 14.8672 30.3125C11.8463 33.3334 8.82555 36.3541 5.80469 39.375C5.42781 39.6155 5.03719 39.8109 4.63281 39.9609C4.16406 39.9609 3.69531 39.9609 3.22656 39.9609C2.07926 39.6079 1.33707 38.8527 1 37.6953C0.947916 26.1328 0.947916 14.5703 1 3.00781C1.34943 1.41954 2.29996 0.403914 3.85156 -0.0390625ZM4.63281 2.30469C12.1849 2.29166 19.737 2.30469 27.2891 2.34375C27.9028 2.41077 28.3064 2.73629 28.5 3.32031C28.5521 14.6484 28.5521 25.9766 28.5 37.3047C28.2365 37.5692 27.937 37.6083 27.6016 37.4219C24.6068 34.4271 21.612 31.4323 18.6172 28.4375C16.8463 27.2396 15.0755 27.2396 13.3047 28.4375C10.3099 31.4323 7.31508 34.4271 4.32031 37.4219C3.98485 37.6083 3.6854 37.5692 3.42188 37.3047C3.36979 25.9505 3.36979 14.5963 3.42188 3.24219C3.66091 2.70225 4.06453 2.38975 4.63281 2.30469Z" fill="white"/>
</svg>
