<svg width="40" height="40" viewBox="0 0 40 40" fill="none" xmlns="http://www.w3.org/2000/svg">
<path d="M36.575 4.60834C36.2156 4.31046 35.7823 4.11539 35.3211 4.04379C34.8598 3.9722 34.3878 4.02675 33.955 4.20167L4.09333 16.2567C3.61078 16.455 3.19996 16.7953 2.91539 17.2326C2.63083 17.6699 2.48598 18.1833 2.50009 18.7049C2.51419 19.2264 2.68658 19.7313 2.99436 20.1525C3.30215 20.5737 3.73077 20.8914 4.22333 21.0633L10.6667 23.3L14.1583 34.8433C14.165 34.8667 14.1867 34.8817 14.1967 34.9033C14.2326 34.9954 14.2852 35.0802 14.3517 35.1533C14.4527 35.2662 14.5831 35.3487 14.7283 35.3917C14.745 35.3983 14.7567 35.4133 14.7733 35.4167H14.7833L14.7883 35.4183C14.9173 35.4461 15.0513 35.4392 15.1767 35.3983C15.19 35.395 15.2033 35.395 15.2183 35.39C15.3387 35.3478 15.4477 35.2782 15.5367 35.1867C15.5467 35.175 15.5633 35.1733 15.5733 35.1633L20.595 29.62L27.9233 35.295C28.3683 35.6433 28.9167 35.8317 29.4817 35.8317C30.705 35.8317 31.76 34.975 32.0117 33.78L37.4483 7.08334C37.5406 6.63013 37.508 6.16039 37.3542 5.72422C37.2004 5.28804 36.9311 4.9018 36.575 4.60667M15.98 25.4917L14.8017 31.22L12.3433 23.09L24.535 16.74L16.2067 25.07C16.0913 25.1852 16.0125 25.3319 15.98 25.4917ZM30.3783 33.445C30.347 33.5961 30.2774 33.7367 30.1761 33.8531C30.0749 33.9696 29.9453 34.0581 29.8 34.11C29.6582 34.1646 29.5047 34.1813 29.3544 34.1585C29.2042 34.1357 29.0626 34.0742 28.9433 33.98L21.005 27.8317C20.8391 27.7036 20.6309 27.6427 20.4221 27.6613C20.2133 27.6798 20.0191 27.7763 19.8783 27.9317L16.3833 31.7833L17.56 26.0717L29.5417 14.0883C29.682 13.9476 29.7674 13.7613 29.7824 13.5631C29.7974 13.3649 29.7411 13.1678 29.6236 13.0075C29.5062 12.8472 29.3352 12.7341 29.1417 12.6887C28.9482 12.6434 28.7448 12.6686 28.5683 12.76L11.2967 21.7567L4.76833 19.4867C4.59524 19.4295 4.44427 19.3198 4.33643 19.1728C4.2286 19.0259 4.16926 18.8489 4.16667 18.6667C4.15836 18.4828 4.20749 18.3009 4.30724 18.1462C4.40699 17.9915 4.55241 17.8717 4.72333 17.8033L34.58 5.74834C34.733 5.68334 34.9011 5.66231 35.0654 5.68763C35.2297 5.71296 35.3837 5.78362 35.51 5.89167C35.6356 5.99332 35.7305 6.12788 35.7841 6.28034C35.8376 6.43279 35.8478 6.59713 35.8133 6.75501L30.3783 33.445Z" fill="white"/>
</svg>
