<svg width="39" height="47" viewBox="0 0 39 47" fill="none" xmlns="http://www.w3.org/2000/svg">
<path d="M0.0400002 47C0.0400002 44.6 0.226667 42.44 0.6 40.52C0.973333 38.6 1.61333 36.8133 2.52 35.16C3.48 33.5067 4.76 31.96 6.36 30.52C8.01333 29.0267 10.0933 27.5867 12.6 26.2C14.7867 25.0267 16.7067 24.0133 18.36 23.16C20.0133 22.2533 21.4 21.4267 22.52 20.68C23.6933 19.9333 24.5733 19.1867 25.16 18.44C25.7467 17.64 26.04 16.7333 26.04 15.72C26.04 14.6533 25.7467 13.6933 25.16 12.84C24.5733 11.9333 23.7467 11.2133 22.68 10.68C21.6133 10.1467 20.28 9.88 18.68 9.88C17.4 9.88 16.2 10.04 15.08 10.36C14.0133 10.68 13 11.1333 12.04 11.72C11.1333 12.3067 10.28 12.9733 9.48 13.72C8.68 14.4133 7.96 15.16 7.32 15.96L0.52 8.12C1.26667 7.37333 2.25333 6.57333 3.48 5.72C4.76 4.81333 6.25333 3.98666 7.96 3.24C9.72 2.44 11.64 1.8 13.72 1.32C15.8533 0.786664 18.12 0.519998 20.52 0.519998C24.1467 0.519998 27.24 1.10666 29.8 2.28C32.36 3.4 34.3067 4.97333 35.64 7C37.0267 9.02667 37.72 11.4 37.72 14.12C37.72 15.9867 37.3733 17.64 36.68 19.08C35.9867 20.52 35.1067 21.8 34.04 22.92C32.9733 23.9867 31.8 24.9467 30.52 25.8C29.2933 26.6533 28.0933 27.4 26.92 28.04C25.2667 28.8933 23.7733 29.6933 22.44 30.44C21.1067 31.1333 19.9333 31.8533 18.92 32.6C17.9067 33.2933 17 34.0133 16.2 34.76C15.4533 35.5067 14.7867 36.36 14.2 37.32H38.6V47H0.0400002Z" fill="#525D4A"/>
</svg>
