<svg width="40" height="59" viewBox="0 0 40 59" fill="none" xmlns="http://www.w3.org/2000/svg">
<path d="M28.48 28.12C30.72 28.4933 32.6667 29.3467 34.32 30.68C35.9733 31.96 37.2533 33.6133 38.16 35.64C39.12 37.6667 39.6 39.9067 39.6 42.36C39.6 45.6667 38.7467 48.5467 37.04 51C35.3333 53.4533 32.9067 55.3467 29.76 56.68C26.6667 58.0667 23.0133 58.76 18.8 58.76C14.7467 58.76 11.1467 58.0933 8 56.76C4.90667 55.48 2.32 53.5867 0.24 51.08L6.32 43.48C7.70667 45.1867 9.36 46.52 11.28 47.48C13.2533 48.4933 15.6533 49 18.48 49C21.7333 49 24.2133 48.3333 25.92 47C27.6267 45.72 28.48 43.7733 28.48 41.16C28.48 38.3867 27.4933 36.2533 25.52 34.76C23.5467 33.2667 20.56 32.52 16.56 32.52H14.32V24.52H16.8C20.0533 24.52 22.5867 23.7733 24.4 22.28C26.2667 20.7867 27.2 18.92 27.2 16.68C27.2 15.24 26.8533 14.04 26.16 13.08C25.4667 12.12 24.5067 11.4 23.28 10.92C22.1067 10.44 20.72 10.2 19.12 10.2C16.72 10.2 14.5333 10.76 12.56 11.88C10.5867 13 8.98667 14.5733 7.76 16.6L1.04 9.08C2.16 7.42667 3.68 6.01333 5.6 4.84C7.57333 3.61333 9.81333 2.65333 12.32 1.96C14.88 1.26666 17.5467 0.919997 20.32 0.919997C23.9467 0.919997 27.12 1.50666 29.84 2.68C32.6133 3.85333 34.7733 5.50667 36.32 7.64C37.8667 9.77333 38.64 12.2533 38.64 15.08C38.64 17.16 38.2133 19.1333 37.36 21C36.5067 22.8667 35.3067 24.44 33.76 25.72C32.2667 26.9467 30.5067 27.7467 28.48 28.12Z" fill="#525D4A"/>
</svg>
