<svg width="109" height="67" viewBox="0 0 109 67" fill="none" xmlns="http://www.w3.org/2000/svg">
    <path
        d="M54.157 42.356L1.291 1.38l.06 58.868c.003 2.825 2.314 5.12 5.16 5.121l95.34.045c2.845.002 5.151-2.29 5.149-5.116l-.061-58.868-52.782 40.926z"
        fill="url(#envelope-front_svg__paint0_linear_959_14451)" />
    <path
        d="M101.851 66.693l-95.34-.045C2.958 66.647.064 63.776.06 60.247L.002 1.378C.001.89.281.448.724.233c.44-.215.971-.158 1.358.139L38.328 28.94c.56.435.661 1.239.224 1.797a1.296 1.296 0 01-1.809.222L2.581 4l.058 56.247c.002 2.116 1.738 3.84 3.869 3.84l95.34.046c2.131 0 3.864-1.72 3.861-3.837l-.057-56.247-34.37 27.008a1.3 1.3 0 01-1.808-.226 1.275 1.275 0 01.22-1.797L106.142.421A1.302 1.302 0 01107.5.283c.444.215.725.658.726 1.147l.06 58.868c.004 3.53-2.884 6.397-6.435 6.395z"
        fill="#0D001E" />
    <path
        d="M104.427 62.855L59.388 21.59c-2.966-2.73-7.548-2.733-10.509-.005L3.924 62.81l100.503.046z"
        fill="url(#envelope-front_svg__paint1_linear_959_14451)" />
    <path
        d="M10.514 61.53c-.347 0-.693-.138-.948-.412a1.272 1.272 0 01.07-1.806L49.743 22.54c2.455-2.256 6.305-2.251 8.762.012.521.479.553 1.29.07 1.807-.487.52-1.301.547-1.822.065-1.473-1.359-3.781-1.36-5.259-.005L11.385 61.191c-.247.227-.556.34-.87.34z"
        fill="#FEE0FF" />
    <path
        d="M105.433 65.248a1.29 1.29 0 01-.876-.34L58.509 22.525c-2.458-2.262-6.303-2.264-8.757-.004L3.792 64.86a1.295 1.295 0 01-1.82-.068 1.276 1.276 0 01.065-1.81l45.961-42.341c3.435-3.158 8.82-3.155 12.262.006l46.047 42.384c.521.481.553 1.293.072 1.81-.255.27-.6.406-.946.406z"
        fill="#0D001E" />
    <path
        d="M3.904 58.973a1.283 1.283 0 01-1.283-1.28L2.582 9.103a1.283 1.283 0 012.564 0l.04 48.592a1.28 1.28 0 01-1.282 1.279z"
        fill="#FEE0FF" />
    <defs>
        <linearGradient id="envelope-front_svg__paint0_linear_959_14451" x1="54.115" y1="1.405"
            x2="54.085" y2="65.392" gradientUnits="userSpaceOnUse">
            <stop stop-color="#525D4A" />
            <stop offset="1" stop-color="#A3C28C" />
        </linearGradient>
        <linearGradient id="envelope-front_svg__paint1_linear_959_14451" x1="54.132" y1="19.54"
            x2="54.112" y2="62.832" gradientUnits="userSpaceOnUse">
            <stop stop-color="#525D4A" />
            <stop offset="1" stop-color="#A3C28C" />
        </linearGradient>
    </defs>
</svg>