<svg width="107" height="107" viewBox="0 0 107 107" fill="none" xmlns="http://www.w3.org/2000/svg">
    <path
        d="M100.841 106.735H5.519c-2.844 0-5.156-2.292-5.16-5.117L.27 43.378c0-.386.175-.754.48-.994L49.794 3.133a5.175 5.175 0 016.461 0l49.161 39.25c.304.241.482.61.483.996l.088 58.239c.004 2.825-2.301 5.117-5.145 5.117z"
        fill="url(#envelope-back_svg__paint0_linear_959_14520)" />
    <path
        d="M104.766 43.907c-.314 0-.629-.113-.877-.34L58.14 4.275c-2.458-2.262-6.303-2.264-8.756-.005L2.208 44.001a1.295 1.295 0 01-1.819-.068 1.276 1.276 0 01.065-1.81L47.63 2.391c3.435-3.157 8.82-3.155 12.262.006l45.749 39.294c.521.481.553 1.293.071 1.81-.255.27-.6.406-.945.406z"
        fill="#0D001E" />
    <defs>
        <linearGradient id="envelope-back_svg__paint0_linear_959_14520" x1="53.022" y1="2.001"
            x2="53.022" y2="106.735" gradientUnits="userSpaceOnUse">
            <stop stop-color="#525D4A" />
            <stop offset="1" stop-color="#A3C28C" />
        </linearGradient>
    </defs>
</svg>