<svg width="93" height="105" viewBox="0 0 93 105" fill="none" xmlns="http://www.w3.org/2000/svg">
    <path
        d="M87.607 100.815l-82.44-.04a1.286 1.286 0 01-1.29-1.28L3.79 16.337l85.017.04.086 83.159c0 .706-.576 1.279-1.287 1.279z"
        fill="#fff" />
    <path fill-rule="evenodd" clip-rule="evenodd"
        d="M89.444 99.71c0 .535-.848 2.088-1.316 2.28l-2.065-.071-79.722-.415s-3.516.308-3.45-1.618c.068-1.925.076-83.332.076-83.332.006-.153-.013-.802.042-.936v-.063l2.353-.021 84.759-.76-.677 84.937zM5.459 17.615l82.04-.268a1.345 1.345 0 00-.005.073l-1.358 82.356-80.07-1.23-1.032-61.5.425-19.43z"
        fill="#0D001E" />
    <path
        d="M88.85 16.414L3.799 16.38 3.786 3.563A2.565 2.565 0 016.36 1.001l79.898.033a2.574 2.574 0 012.58 2.564l.012 12.816z"
        fill="url(#letter_svg__paint0_linear_959_14491)" />
    <path
        d="M88.85 16.414l-84.883.174-.181-13.025A2.565 2.565 0 016.36 1.001l79.898.033a2.574 2.574 0 012.58 2.564l.012 12.816z"
        stroke="#0D001E" stroke-width="2" stroke-linecap="round" stroke-linejoin="round" />
    <path
        d="M42.447 8.708a2.562 2.562 0 01-2.573 2.557 2.572 2.572 0 01-2.58-2.56 2.562 2.562 0 012.574-2.557 2.572 2.572 0 012.58 2.56z"
        fill="#fff" />
    <path
        d="M42.447 8.708a2.562 2.562 0 01-2.573 2.557 2.572 2.572 0 01-2.58-2.56 2.562 2.562 0 012.574-2.557 2.572 2.572 0 012.58 2.56z"
        stroke="#0D001E" stroke-width="2" stroke-linecap="round" stroke-linejoin="round" />
    <path
        d="M29.558 8.708a2.562 2.562 0 01-2.573 2.557 2.571 2.571 0 01-2.579-2.56 2.562 2.562 0 012.574-2.557 2.571 2.571 0 012.578 2.56z"
        fill="#fff" />
    <path
        d="M29.558 8.708a2.562 2.562 0 01-2.573 2.557 2.571 2.571 0 01-2.579-2.56 2.562 2.562 0 012.574-2.557 2.571 2.571 0 012.578 2.56z"
        stroke="#0D001E" stroke-width="2" stroke-linecap="round" stroke-linejoin="round" />
    <path
        d="M16.67 8.708a2.562 2.562 0 01-2.573 2.558 2.571 2.571 0 01-2.579-2.56 2.562 2.562 0 012.574-2.558 2.571 2.571 0 012.579 2.56z"
        fill="#fff" />
    <path
        d="M16.67 8.708a2.562 2.562 0 01-2.573 2.558 2.571 2.571 0 01-2.579-2.56 2.562 2.562 0 012.574-2.558 2.571 2.571 0 012.579 2.56z"
        stroke="#0D001E" stroke-width="2" stroke-linecap="round" stroke-linejoin="round" />
    <path
        d="M75.996 81.62l-59.271-.026c-.712 0-1.29-.575-1.29-1.281L15.41 57.27c0-.707.576-1.28 1.288-1.28l59.272.027c.71 0 1.289.575 1.29 1.281l.023 23.043c0 .707-.576 1.28-1.288 1.28zM75.979 50.933l-59.272-.028c-.711 0-1.289-.574-1.29-1.28l-.023-23.043c0-.707.576-1.28 1.287-1.28l59.272.027c.711 0 1.29.574 1.29 1.281l.023 23.043c0 .707-.576 1.28-1.287 1.28z"
        fill="#EEE4F0" />
    <path
        d="M42.993 47.937l-8.758-8.906a2.46 2.46 0 00-.803-.551 2.426 2.426 0 00-2.7.55 2.541 2.541 0 000 3.563l10.484 10.663a2.463 2.463 0 003.528 0l26.524-26.95c.232-.232.416-.51.542-.815a2.541 2.541 0 00-1.344-3.297 2.428 2.428 0 00-2.7.55L42.992 47.937z"
        fill="url(#letter_svg__paint1_linear_959_14491)" />
    <defs>
        <linearGradient id="letter_svg__paint0_linear_959_14491" x1="46.31" y1="1.017" x2="46.303"
            y2="16.397" gradientUnits="userSpaceOnUse">
            <stop stop-color="#525D4A" />
            <stop offset="1" stop-color="#A3C28C" />
        </linearGradient>
        <linearGradient id="letter_svg__paint1_linear_959_14491" x1="51" y1="22" x2="51" y2="54"
            gradientUnits="userSpaceOnUse">
            <stop stop-color="#525D4A" />
            <stop offset="1" stop-color="#A3C28C" />
        </linearGradient>
    </defs>
</svg>