<svg width="40" height="40" viewBox="0 0 40 40" fill="none" xmlns="http://www.w3.org/2000/svg">
<path d="M28.75 17.5V21.25C28.75 23.5706 27.8281 25.7962 26.1872 27.4372C24.5462 29.0781 22.3206 30 20 30C17.6794 30 15.4538 29.0781 13.8128 27.4372C12.1719 25.7962 11.25 23.5706 11.25 21.25V17.5H8.75V21.25C8.75131 24.0163 9.77182 26.6852 11.6165 28.7467C13.4612 30.8081 16.0008 32.1176 18.75 32.425V35H13.75V37.5H26.25V35H21.25V32.425C23.9992 32.1176 26.5388 30.8081 28.3835 28.7467C30.2282 26.6852 31.2487 24.0163 31.25 21.25V17.5H28.75Z" fill="#F9EE89"/>
<path d="M20 27.5C21.6576 27.5 23.2473 26.8415 24.4194 25.6694C25.5915 24.4973 26.25 22.9076 26.25 21.25V8.75C26.25 7.0924 25.5915 5.50269 24.4194 4.33058C23.2473 3.15848 21.6576 2.5 20 2.5C18.3424 2.5 16.7527 3.15848 15.5806 4.33058C14.4085 5.50269 13.75 7.0924 13.75 8.75V21.25C13.75 22.9076 14.4085 24.4973 15.5806 25.6694C16.7527 26.8415 18.3424 27.5 20 27.5ZM16.25 8.75C16.25 7.75544 16.6451 6.80161 17.3483 6.09835C18.0516 5.39509 19.0054 5 20 5C20.9946 5 21.9484 5.39509 22.6517 6.09835C23.3549 6.80161 23.75 7.75544 23.75 8.75V21.25C23.75 22.2446 23.3549 23.1984 22.6517 23.9017C21.9484 24.6049 20.9946 25 20 25C19.0054 25 18.0516 24.6049 17.3483 23.9017C16.6451 23.1984 16.25 22.2446 16.25 21.25V8.75Z" fill="#F9EE89"/>
</svg>
