<?xml version="1.0" standalone="no"?>
<!DOCTYPE svg PUBLIC "-//W3C//DTD SVG 20010904//EN"
 "http://www.w3.org/TR/2001/REC-SVG-20010904/DTD/svg10.dtd">
<svg version="1.0" xmlns="http://www.w3.org/2000/svg"
 width="260.000000pt" height="260.000000pt" viewBox="0 0 260.000000 260.000000"
 preserveAspectRatio="xMidYMid meet">
<metadata>
Created by potrace 1.14, written by Peter Selinger 2001-2017
</metadata>
<g transform="translate(0.000000,260.000000) scale(0.100000,-0.100000)"
fill="#000000" stroke="none">
<path d="M1203 2424 c-139 -36 -236 -126 -290 -267 -14 -36 -17 -105 -18 -511
-2 -495 1 -529 45 -615 28 -56 114 -142 168 -170 246 -125 541 15 590 281 5
25 8 254 7 509 -1 454 -2 465 -23 520 -77 195 -285 304 -479 253z m193 -170
c53 -22 100 -70 124 -126 23 -53 23 -55 23 -508 0 -453 0 -455 -22 -502 -41
-85 -122 -139 -210 -140 -103 -2 -182 45 -228 136 l-26 51 0 440 c0 242 2 454
5 470 29 155 188 240 334 179z"/>
<path d="M580 1462 c-6 -2 -10 -65 -10 -156 0 -132 4 -181 24 -281 11 -56 66
-170 113 -235 46 -63 152 -158 221 -199 67 -40 203 -91 240 -91 47 0 52 -8 52
-91 0 -56 -4 -79 -12 -80 -7 -1 -80 -2 -163 -3 l-150 -1 0 -80 0 -80 406 -1
405 -1 1 81 1 82 -147 -1 c-80 -1 -153 1 -163 3 -13 3 -16 18 -17 82 l-1 78
48 11 c257 55 450 211 547 441 15 36 29 74 31 85 2 11 7 31 11 45 3 14 8 107
10 208 l5 182 -24 1 c-53 2 -129 1 -132 -2 -2 -2 -6 -83 -8 -179 -6 -190 -18
-246 -83 -356 -113 -194 -355 -304 -581 -265 -169 29 -335 152 -407 301 -54
111 -65 164 -66 340 -1 85 -3 156 -5 158 -5 4 -134 8 -146 4z"/>
</g>
</svg>
