<svg width="20" height="21" viewBox="0 0 20 21" fill="currentColor"
    xmlns="http://www.w3.org/2000/svg">
    <path
        d="M10.8567 2.16669C11.7942 2.16919 12.27 2.17419 12.6808 2.18585L12.8425 2.19169C13.0292 2.19835 13.2133 2.20669 13.4358 2.21669C14.3225 2.25835 14.9275 2.39835 15.4583 2.60419C16.0083 2.81585 16.4717 3.10252 16.935 3.56502C17.3588 3.9816 17.6866 4.48551 17.8958 5.04169C18.1017 5.57252 18.2417 6.17752 18.2833 7.06502C18.2933 7.28669 18.3017 7.47085 18.3083 7.65835L18.3133 7.82002C18.3258 8.23002 18.3308 8.70585 18.3325 9.64335L18.3333 10.265V11.3567C18.3354 11.9645 18.329 12.5724 18.3142 13.18L18.3092 13.3417C18.3025 13.5292 18.2942 13.7134 18.2842 13.935C18.2425 14.8225 18.1008 15.4267 17.8958 15.9584C17.6872 16.5148 17.3593 17.0189 16.935 17.435C16.5183 17.8586 16.0144 18.1865 15.4583 18.3959C14.9275 18.6017 14.3225 18.7417 13.4358 18.7834C13.2381 18.7927 13.0403 18.801 12.8425 18.8084L12.6808 18.8134C12.27 18.825 11.7942 18.8309 10.8567 18.8325L10.235 18.8334H9.14418C8.53606 18.8355 7.92795 18.8291 7.32001 18.8142L7.15835 18.8092C6.96052 18.8017 6.76274 18.7931 6.56501 18.7834C5.67835 18.7417 5.07335 18.6017 4.54168 18.3959C3.98557 18.187 3.48186 17.8591 3.06585 17.435C2.64172 17.0186 2.31353 16.5147 2.10418 15.9584C1.89835 15.4275 1.75835 14.8225 1.71668 13.935C1.7074 13.7373 1.69906 13.5395 1.69168 13.3417L1.68751 13.18C1.67216 12.5724 1.66521 11.9645 1.66668 11.3567V9.64335C1.66435 9.03552 1.67047 8.42768 1.68501 7.82002L1.69085 7.65835C1.69751 7.47085 1.70585 7.28669 1.71585 7.06502C1.75751 6.17752 1.89751 5.57335 2.10335 5.04169C2.31261 4.48494 2.64145 3.98087 3.06668 3.56502C3.48259 3.14125 3.98597 2.81334 4.54168 2.60419C5.07335 2.39835 5.67751 2.25835 6.56501 2.21669C6.78668 2.20669 6.97168 2.19835 7.15835 2.19169L7.32001 2.18669C7.92767 2.17188 8.53551 2.16549 9.14335 2.16752L10.8567 2.16669ZM10 6.33335C8.89494 6.33335 7.83514 6.77234 7.05373 7.55374C6.27233 8.33514 5.83335 9.39495 5.83335 10.5C5.83335 11.6051 6.27233 12.6649 7.05373 13.4463C7.83514 14.2277 8.89494 14.6667 10 14.6667C11.1051 14.6667 12.1649 14.2277 12.9463 13.4463C13.7277 12.6649 14.1667 11.6051 14.1667 10.5C14.1667 9.39495 13.7277 8.33514 12.9463 7.55374C12.1649 6.77234 11.1051 6.33335 10 6.33335ZM10 8.00002C10.3283 7.99997 10.6534 8.06458 10.9568 8.19016C11.2601 8.31575 11.5357 8.49985 11.7679 8.73196C12.0001 8.96407 12.1843 9.23963 12.31 9.54293C12.4357 9.84622 12.5004 10.1713 12.5004 10.4996C12.5005 10.8279 12.4359 11.153 12.3103 11.4563C12.1847 11.7597 12.0006 12.0353 11.7685 12.2675C11.5364 12.4997 11.2608 12.6839 10.9575 12.8096C10.6542 12.9352 10.3292 13 10.0008 13C9.33781 13 8.70192 12.7366 8.23308 12.2678C7.76424 11.7989 7.50085 11.1631 7.50085 10.5C7.50085 9.83698 7.76424 9.20109 8.23308 8.73225C8.70192 8.26341 9.33781 8.00002 10.0008 8.00002M14.3758 5.08335C14.0996 5.08335 13.8346 5.1931 13.6393 5.38845C13.4439 5.5838 13.3342 5.84875 13.3342 6.12502C13.3342 6.40129 13.4439 6.66624 13.6393 6.86159C13.8346 7.05694 14.0996 7.16669 14.3758 7.16669C14.6521 7.16669 14.9171 7.05694 15.1124 6.86159C15.3078 6.66624 15.4175 6.40129 15.4175 6.12502C15.4175 5.84875 15.3078 5.5838 15.1124 5.38845C14.9171 5.1931 14.6521 5.08335 14.3758 5.08335Z" />
</svg>