<svg width="161" height="56" viewBox="0 0 161 56" fill="none" xmlns="http://www.w3.org/2000/svg">
<path d="M28.75 25.5V29.25C28.75 31.5706 27.8281 33.7962 26.1872 35.4372C24.5462 37.0781 22.3206 38 20 38C17.6794 38 15.4538 37.0781 13.8128 35.4372C12.1719 33.7962 11.25 31.5706 11.25 29.25V25.5H8.75V29.25C8.75131 32.0163 9.77182 34.6852 11.6165 36.7467C13.4612 38.8081 16.0008 40.1176 18.75 40.425V43H13.75V45.5H26.25V43H21.25V40.425C23.9992 40.1176 26.5388 38.8081 28.3835 36.7467C30.2282 34.6852 31.2487 32.0163 31.25 29.25V25.5H28.75Z" fill="#F9EE89"/>
<path d="M20 35.5C21.6576 35.5 23.2473 34.8415 24.4194 33.6694C25.5915 32.4973 26.25 30.9076 26.25 29.25V16.75C26.25 15.0924 25.5915 13.5027 24.4194 12.3306C23.2473 11.1585 21.6576 10.5 20 10.5C18.3424 10.5 16.7527 11.1585 15.5806 12.3306C14.4085 13.5027 13.75 15.0924 13.75 16.75V29.25C13.75 30.9076 14.4085 32.4973 15.5806 33.6694C16.7527 34.8415 18.3424 35.5 20 35.5ZM16.25 16.75C16.25 15.7554 16.6451 14.8016 17.3483 14.0983C18.0516 13.3951 19.0054 13 20 13C20.9946 13 21.9484 13.3951 22.6517 14.0983C23.3549 14.8016 23.75 15.7554 23.75 16.75V29.25C23.75 30.2446 23.3549 31.1984 22.6517 31.9017C21.9484 32.6049 20.9946 33 20 33C19.0054 33 18.0516 32.6049 17.3483 31.9017C16.6451 31.1984 16.25 30.2446 16.25 29.25V16.75Z" fill="#F9EE89"/>
<path d="M61.664 22V14.656C61.312 14.816 60.904 14.968 60.44 15.112C59.976 15.256 59.472 15.376 58.928 15.472C58.384 15.552 57.8 15.592 57.176 15.592C55.288 15.592 53.896 15.184 53 14.368C52.104 13.536 51.656 12.224 51.656 10.432V4.96H53.288V10.24C53.288 11.568 53.608 12.536 54.248 13.144C54.904 13.752 55.96 14.056 57.416 14.056C58.232 14.056 59.024 13.968 59.792 13.792C60.576 13.616 61.2 13.4 61.664 13.144V4.96H63.296V22H61.664ZM72.6453 22.24C71.7493 22.24 70.9173 22.072 70.1493 21.736C69.3813 21.384 68.7173 20.912 68.1573 20.32C67.5973 19.712 67.1573 19.016 66.8373 18.232C66.5333 17.448 66.3813 16.608 66.3813 15.712C66.3813 14.544 66.6453 13.472 67.1733 12.496C67.7173 11.52 68.4613 10.744 69.4053 10.168C70.3493 9.576 71.4213 9.28 72.6213 9.28C73.8533 9.28 74.9253 9.576 75.8373 10.168C76.7653 10.76 77.4933 11.544 78.0213 12.52C78.5493 13.48 78.8133 14.536 78.8133 15.688C78.8133 15.816 78.8133 15.944 78.8133 16.072C78.8133 16.184 78.8053 16.272 78.7893 16.336H68.0853C68.1653 17.232 68.4133 18.032 68.8293 18.736C69.2613 19.424 69.8133 19.976 70.4853 20.392C71.1733 20.792 71.9173 20.992 72.7173 20.992C73.5333 20.992 74.3013 20.784 75.0213 20.368C75.7573 19.952 76.2693 19.408 76.5573 18.736L77.9733 19.12C77.7173 19.712 77.3253 20.248 76.7973 20.728C76.2693 21.208 75.6453 21.584 74.9253 21.856C74.2213 22.112 73.4613 22.24 72.6453 22.24ZM68.0373 15.16H77.2773C77.2133 14.248 76.9653 13.448 76.5333 12.76C76.1173 12.072 75.5653 11.536 74.8773 11.152C74.2053 10.752 73.4613 10.552 72.6453 10.552C71.8293 10.552 71.0853 10.752 70.4133 11.152C69.7413 11.536 69.1893 12.08 68.7573 12.784C68.3413 13.472 68.1013 14.264 68.0373 15.16ZM87.7153 22.24C86.6753 22.24 85.7393 21.968 84.9073 21.424C84.0913 20.88 83.4433 20.208 82.9633 19.408V27.112H81.3313V9.496H82.7953V11.92C83.2913 11.136 83.9553 10.504 84.7873 10.024C85.6193 9.528 86.5073 9.28 87.4513 9.28C88.3153 9.28 89.1073 9.464 89.8273 9.832C90.5473 10.184 91.1713 10.664 91.6993 11.272C92.2273 11.88 92.6353 12.576 92.9233 13.36C93.2273 14.128 93.3793 14.928 93.3793 15.76C93.3793 16.928 93.1393 18.008 92.6593 19C92.1953 19.976 91.5393 20.76 90.6913 21.352C89.8433 21.944 88.8513 22.24 87.7153 22.24ZM87.2593 20.8C87.9473 20.8 88.5633 20.664 89.1073 20.392C89.6513 20.104 90.1153 19.72 90.4993 19.24C90.8993 18.76 91.2033 18.224 91.4113 17.632C91.6193 17.024 91.7233 16.4 91.7233 15.76C91.7233 15.088 91.6033 14.448 91.3633 13.84C91.1393 13.232 90.8113 12.696 90.3793 12.232C89.9473 11.768 89.4513 11.4 88.8913 11.128C88.3313 10.856 87.7233 10.72 87.0673 10.72C86.6513 10.72 86.2193 10.8 85.7713 10.96C85.3233 11.12 84.8913 11.352 84.4753 11.656C84.0753 11.944 83.7393 12.272 83.4673 12.64C83.1953 13.008 83.0273 13.4 82.9633 13.816V17.656C83.2193 18.248 83.5633 18.784 83.9953 19.264C84.4273 19.728 84.9233 20.104 85.4833 20.392C86.0593 20.664 86.6513 20.8 87.2593 20.8ZM96.1198 22V9.496H97.7518V14.848H99.6238L103.824 9.496H105.696L100.92 15.568L106.296 22H104.376L99.6238 16.36H97.7518V22H96.1198ZM109.98 27.232C109.709 27.232 109.429 27.184 109.141 27.088C108.869 27.008 108.589 26.888 108.301 26.728L108.901 25.576C109.077 25.672 109.237 25.752 109.381 25.816C109.541 25.88 109.709 25.912 109.885 25.912C110.301 25.912 110.693 25.704 111.061 25.288C111.429 24.872 111.781 24.264 112.117 23.464L112.741 21.904L107.173 9.496H108.901L113.485 20.32L117.709 9.496H119.341L113.389 23.968C113.069 24.72 112.733 25.336 112.381 25.816C112.029 26.296 111.653 26.648 111.253 26.872C110.853 27.112 110.429 27.232 109.98 27.232ZM121.596 22V9.496H123.228V14.872H130.38V9.496H132.012V22H130.38V16.336H123.228V22H121.596ZM140.941 22.24C140.045 22.24 139.213 22.072 138.445 21.736C137.693 21.384 137.037 20.912 136.477 20.32C135.933 19.712 135.509 19.024 135.205 18.256C134.901 17.472 134.749 16.648 134.749 15.784C134.749 14.888 134.901 14.056 135.205 13.288C135.509 12.504 135.941 11.816 136.501 11.224C137.061 10.616 137.717 10.144 138.469 9.808C139.237 9.456 140.069 9.28 140.965 9.28C141.861 9.28 142.685 9.456 143.437 9.808C144.189 10.144 144.845 10.616 145.405 11.224C145.965 11.816 146.397 12.504 146.701 13.288C147.005 14.056 147.157 14.888 147.157 15.784C147.157 16.648 147.005 17.472 146.701 18.256C146.397 19.024 145.965 19.712 145.405 20.32C144.861 20.912 144.205 21.384 143.437 21.736C142.685 22.072 141.853 22.24 140.941 22.24ZM136.405 15.808C136.405 16.736 136.605 17.584 137.005 18.352C137.421 19.104 137.973 19.704 138.661 20.152C139.349 20.584 140.109 20.8 140.941 20.8C141.773 20.8 142.533 20.576 143.221 20.128C143.909 19.68 144.461 19.072 144.877 18.304C145.293 17.52 145.501 16.672 145.501 15.76C145.501 14.832 145.293 13.984 144.877 13.216C144.461 12.448 143.909 11.84 143.221 11.392C142.533 10.944 141.773 10.72 140.941 10.72C140.109 10.72 139.349 10.952 138.661 11.416C137.989 11.88 137.445 12.496 137.029 13.264C136.613 14.016 136.405 14.864 136.405 15.808ZM149.862 22V9.496H156.102C156.806 9.496 157.398 9.648 157.878 9.952C158.358 10.24 158.718 10.616 158.958 11.08C159.214 11.544 159.342 12.04 159.342 12.568C159.342 13.24 159.182 13.848 158.862 14.392C158.542 14.92 158.078 15.32 157.47 15.592C158.19 15.8 158.774 16.176 159.222 16.72C159.67 17.264 159.894 17.92 159.894 18.688C159.894 19.36 159.726 19.944 159.39 20.44C159.07 20.936 158.622 21.32 158.046 21.592C157.486 21.864 156.838 22 156.102 22H149.862ZM151.422 20.824H156.054C156.47 20.824 156.846 20.72 157.182 20.512C157.534 20.288 157.806 20 157.998 19.648C158.206 19.296 158.31 18.928 158.31 18.544C158.31 18.128 158.214 17.752 158.022 17.416C157.83 17.064 157.574 16.784 157.254 16.576C156.934 16.368 156.566 16.264 156.15 16.264H151.422V20.824ZM151.422 15.136H155.67C156.086 15.136 156.454 15.024 156.774 14.8C157.094 14.576 157.342 14.288 157.518 13.936C157.694 13.584 157.782 13.216 157.782 12.832C157.782 12.256 157.59 11.752 157.206 11.32C156.838 10.888 156.358 10.672 155.766 10.672H151.422V15.136Z" fill="#FFFEFE"/>
<path d="M55.904 50.24C54.88 50.24 53.928 50.072 53.048 49.736C52.168 49.4 51.408 48.888 50.768 48.2L51.44 47.048C52.144 47.704 52.848 48.184 53.552 48.488C54.272 48.776 55.032 48.92 55.832 48.92C56.808 48.92 57.6 48.728 58.208 48.344C58.816 47.944 59.12 47.376 59.12 46.64C59.12 46.144 58.968 45.768 58.664 45.512C58.376 45.24 57.952 45.024 57.392 44.864C56.848 44.688 56.192 44.504 55.424 44.312C54.56 44.072 53.832 43.824 53.24 43.568C52.664 43.296 52.224 42.96 51.92 42.56C51.632 42.144 51.488 41.608 51.488 40.952C51.488 40.136 51.688 39.464 52.088 38.936C52.504 38.392 53.064 37.984 53.768 37.712C54.488 37.424 55.288 37.28 56.168 37.28C57.128 37.28 57.976 37.432 58.712 37.736C59.448 38.04 60.048 38.464 60.512 39.008L59.72 40.112C59.272 39.6 58.736 39.224 58.112 38.984C57.504 38.728 56.824 38.6 56.072 38.6C55.56 38.6 55.072 38.672 54.608 38.816C54.144 38.944 53.76 39.168 53.456 39.488C53.168 39.792 53.024 40.216 53.024 40.76C53.024 41.208 53.136 41.56 53.36 41.816C53.584 42.056 53.92 42.264 54.368 42.44C54.816 42.6 55.368 42.776 56.024 42.968C56.968 43.224 57.792 43.488 58.496 43.76C59.2 44.016 59.744 44.352 60.128 44.768C60.512 45.184 60.704 45.768 60.704 46.52C60.704 47.688 60.264 48.6 59.384 49.256C58.504 49.912 57.344 50.24 55.904 50.24ZM73.9136 50H72.2816V43.016C72.2816 41.608 72.0336 40.552 71.5376 39.848C71.0416 39.128 70.3296 38.768 69.4016 38.768C68.7936 38.768 68.1856 38.928 67.5776 39.248C66.9856 39.552 66.4576 39.976 65.9936 40.52C65.5456 41.048 65.2256 41.656 65.0336 42.344V50H63.4016V32.48H65.0336V40.328C65.5296 39.4 66.2176 38.664 67.0976 38.12C67.9936 37.56 68.9456 37.28 69.9536 37.28C70.6736 37.28 71.2816 37.408 71.7776 37.664C72.2896 37.92 72.6976 38.296 73.0016 38.792C73.3216 39.272 73.5536 39.84 73.6976 40.496C73.8416 41.136 73.9136 41.864 73.9136 42.68V50ZM82.7218 50.24C81.8258 50.24 80.9938 50.072 80.2258 49.736C79.4738 49.384 78.8178 48.912 78.2578 48.32C77.7138 47.712 77.2898 47.024 76.9858 46.256C76.6818 45.472 76.5298 44.648 76.5298 43.784C76.5298 42.888 76.6818 42.056 76.9858 41.288C77.2898 40.504 77.7218 39.816 78.2818 39.224C78.8418 38.616 79.4978 38.144 80.2498 37.808C81.0178 37.456 81.8498 37.28 82.7458 37.28C83.6418 37.28 84.4658 37.456 85.2178 37.808C85.9698 38.144 86.6258 38.616 87.1858 39.224C87.7458 39.816 88.1778 40.504 88.4818 41.288C88.7858 42.056 88.9378 42.888 88.9378 43.784C88.9378 44.648 88.7858 45.472 88.4818 46.256C88.1778 47.024 87.7458 47.712 87.1858 48.32C86.6418 48.912 85.9858 49.384 85.2178 49.736C84.4658 50.072 83.6338 50.24 82.7218 50.24ZM78.1858 43.808C78.1858 44.736 78.3858 45.584 78.7858 46.352C79.2018 47.104 79.7538 47.704 80.4418 48.152C81.1298 48.584 81.8898 48.8 82.7218 48.8C83.5538 48.8 84.3138 48.576 85.0018 48.128C85.6898 47.68 86.2418 47.072 86.6578 46.304C87.0738 45.52 87.2818 44.672 87.2818 43.76C87.2818 42.832 87.0738 41.984 86.6578 41.216C86.2418 40.448 85.6898 39.84 85.0018 39.392C84.3138 38.944 83.5538 38.72 82.7218 38.72C81.8898 38.72 81.1298 38.952 80.4418 39.416C79.7698 39.88 79.2258 40.496 78.8098 41.264C78.3938 42.016 78.1858 42.864 78.1858 43.808ZM106.989 37.496H108.597L103.221 50H101.805L99.1893 43.784L96.5973 50H95.1813L89.8053 37.496H91.3893L95.9493 48.32L98.2533 42.68L96.1413 37.52H97.6053L99.1893 41.576L100.797 37.52H102.237L100.149 42.68L102.453 48.32L106.989 37.496ZM129.369 50H127.737V43.016C127.737 41.56 127.505 40.488 127.041 39.8C126.577 39.112 125.889 38.768 124.977 38.768C124.033 38.768 123.185 39.104 122.433 39.776C121.697 40.448 121.177 41.312 120.873 42.368V50H119.241V43.016C119.241 41.544 119.017 40.472 118.569 39.8C118.121 39.112 117.433 38.768 116.505 38.768C115.577 38.768 114.737 39.096 113.985 39.752C113.233 40.408 112.705 41.272 112.401 42.344V50H110.769V37.496H112.257V40.328C112.785 39.352 113.457 38.6 114.273 38.072C115.105 37.544 116.025 37.28 117.033 37.28C118.073 37.28 118.913 37.576 119.553 38.168C120.193 38.76 120.585 39.536 120.729 40.496C121.305 39.44 121.993 38.64 122.793 38.096C123.609 37.552 124.529 37.28 125.553 37.28C126.257 37.28 126.849 37.408 127.329 37.664C127.825 37.92 128.217 38.288 128.505 38.768C128.809 39.232 129.025 39.8 129.153 40.472C129.297 41.128 129.369 41.864 129.369 42.68V50ZM131.815 46.4C131.815 45.616 132.039 44.944 132.487 44.384C132.935 43.808 133.551 43.368 134.335 43.064C135.135 42.744 136.055 42.584 137.095 42.584C137.703 42.584 138.335 42.632 138.991 42.728C139.647 42.824 140.231 42.968 140.743 43.16V42.104C140.743 41.048 140.431 40.208 139.807 39.584C139.183 38.96 138.319 38.648 137.215 38.648C136.543 38.648 135.879 38.776 135.223 39.032C134.583 39.272 133.911 39.632 133.207 40.112L132.583 38.96C133.399 38.4 134.199 37.984 134.983 37.712C135.767 37.424 136.567 37.28 137.383 37.28C138.919 37.28 140.135 37.72 141.031 38.6C141.927 39.48 142.375 40.696 142.375 42.248V48.032C142.375 48.256 142.423 48.424 142.519 48.536C142.615 48.632 142.767 48.688 142.975 48.704V50C142.799 50.016 142.647 50.032 142.519 50.048C142.391 50.064 142.295 50.064 142.231 50.048C141.831 50.032 141.527 49.904 141.319 49.664C141.111 49.424 140.999 49.168 140.983 48.896L140.959 47.984C140.399 48.704 139.671 49.264 138.775 49.664C137.879 50.048 136.967 50.24 136.039 50.24C135.239 50.24 134.511 50.072 133.855 49.736C133.215 49.384 132.711 48.92 132.343 48.344C131.991 47.752 131.815 47.104 131.815 46.4ZM140.191 47.36C140.367 47.136 140.503 46.92 140.599 46.712C140.695 46.504 140.743 46.32 140.743 46.16V44.336C140.199 44.128 139.631 43.968 139.039 43.856C138.463 43.744 137.879 43.688 137.287 43.688C136.119 43.688 135.175 43.92 134.455 44.384C133.735 44.848 133.375 45.48 133.375 46.28C133.375 46.744 133.495 47.184 133.735 47.6C133.975 48 134.327 48.336 134.791 48.608C135.255 48.864 135.799 48.992 136.423 48.992C137.207 48.992 137.935 48.84 138.607 48.536C139.295 48.232 139.823 47.84 140.191 47.36ZM156.414 50H154.782V43.016C154.782 41.544 154.566 40.472 154.134 39.8C153.702 39.112 153.022 38.768 152.094 38.768C151.454 38.768 150.822 38.928 150.198 39.248C149.574 39.552 149.022 39.976 148.542 40.52C148.078 41.048 147.742 41.656 147.534 42.344V50H145.902V37.496H147.39V40.328C147.726 39.72 148.166 39.192 148.71 38.744C149.254 38.28 149.87 37.92 150.558 37.664C151.246 37.408 151.958 37.28 152.694 37.28C153.382 37.28 153.966 37.408 154.446 37.664C154.926 37.92 155.31 38.288 155.598 38.768C155.886 39.232 156.094 39.8 156.222 40.472C156.35 41.128 156.414 41.864 156.414 42.68V50Z" fill="#F9EE89"/>
</svg>
