<svg width="20" height="21" viewBox="0 0 20 21" fill="currentColor"
    xmlns="http://www.w3.org/2000/svg">
    <path
        d="M16.5031 13.2083L14.3864 12.9667C14.1375 12.9374 13.8852 12.965 13.6485 13.0473C13.4118 13.1295 13.1968 13.2644 13.0197 13.4417L11.4864 14.975C9.12072 13.7719 7.19788 11.849 5.99473 9.48333L7.53639 7.94167C7.89473 7.58333 8.06973 7.08333 8.01139 6.575L7.76973 4.475C7.72248 4.06848 7.52739 3.69353 7.22159 3.42154C6.91579 3.14955 6.52065 2.99951 6.11139 3H4.66973C3.72806 3 2.94473 3.78333 3.00306 4.725C3.44473 11.8417 9.13639 17.525 16.2447 17.9667C17.1864 18.025 17.9697 17.2417 17.9697 16.3V14.8583C17.9781 14.0167 17.3447 13.3083 16.5031 13.2083Z"
    />
</svg>