<svg width="20" height="21" viewBox="0 0 20 21" fill="currentColor"
    xmlns="http://www.w3.org/2000/svg">
    <path fill-rule="evenodd" clip-rule="evenodd"
        d="M16.4809 4.69164C16.6868 4.60496 16.9122 4.57507 17.1336 4.60507C17.355 4.63507 17.5643 4.72386 17.7398 4.86221C17.9152 5.00056 18.0504 5.1834 18.1312 5.39171C18.212 5.60001 18.2355 5.82617 18.1992 6.04664L16.3092 17.5108C16.1259 18.6166 14.9125 19.2508 13.8984 18.7C13.05 18.2391 11.79 17.5291 10.6567 16.7883C10.09 16.4175 8.3542 15.23 8.56754 14.385C8.75087 13.6625 11.6675 10.9475 13.3342 9.3333C13.9884 8.69914 13.69 8.3333 12.9175 8.91664C10.9992 10.365 7.9192 12.5675 6.90087 13.1875C6.00254 13.7341 5.5342 13.8275 4.9742 13.7341C3.95254 13.5641 3.00504 13.3008 2.2317 12.98C1.1867 12.5466 1.23754 11.11 2.23087 10.6916L16.4809 4.69164Z"
    />
</svg>