<svg width="20" height="21" viewBox="0 0 20 21" fill="currentColor"
    xmlns="http://www.w3.org/2000/svg">
    <path
        d="M18.3158 5.67167C18.4325 5.28417 18.3158 5 17.7642 5H15.9367C15.4717 5 15.2592 5.24583 15.1425 5.51583C15.1425 5.51583 14.2133 7.78167 12.8967 9.25083C12.4717 9.67833 12.2775 9.81333 12.0458 9.81333C11.93 9.81333 11.7617 9.67833 11.7617 9.29083V5.67167C11.7617 5.20667 11.6275 5 11.24 5H8.36833C8.07833 5 7.90333 5.215 7.90333 5.42C7.90333 5.86 8.56167 5.96167 8.62917 7.20167V9.89167C8.62917 10.4808 8.52333 10.5883 8.29 10.5883C7.67083 10.5883 6.16417 8.31417 5.27 5.71083C5.09583 5.205 4.92 5.00083 4.45333 5.00083H2.62667C2.10417 5.00083 2 5.24667 2 5.51667C2 6.00167 2.61917 8.40167 4.88417 11.5758C6.39417 13.7433 8.52 14.9183 10.4567 14.9183C11.6175 14.9183 11.7608 14.6575 11.7608 14.2075V12.5692C11.7608 12.0475 11.8717 11.9425 12.2392 11.9425C12.5092 11.9425 12.9742 12.0792 14.0583 13.1233C15.2967 14.3617 15.5017 14.9175 16.1975 14.9175H18.0242C18.5458 14.9175 18.8067 14.6567 18.6567 14.1417C18.4925 13.6292 17.9008 12.8833 17.1158 12.0008C16.6892 11.4975 16.0517 10.9558 15.8575 10.685C15.5867 10.3358 15.665 10.1817 15.8575 9.87167C15.8583 9.8725 18.0842 6.7375 18.3158 5.67167Z"
    />
</svg>